<svg id="b52d7e2d-d80f-4111-b6ed-d15502ee1edd" data-name="Layer 1" xmlns="http://www.w3.org/2000/svg" width="711.1879" height="669.68268" viewBox="0 0 711.1879 669.68268"><title>feeling_proud</title><polygon points="516.326 380.018 516.326 565.013 547.27 615.443 549.625 619.279 671.722 619.279 674.189 380.018 516.326 380.018" fill="#e6e6e6"/><polygon points="516.326 380.018 516.326 565.013 547.27 615.443 549.169 380.018 516.326 380.018" opacity="0.1"/><polygon points="221.566 375.084 221.566 560.08 190.622 610.51 188.267 614.345 66.17 614.345 63.703 375.084 221.566 375.084" fill="#e6e6e6"/><polygon points="221.566 375.084 221.566 560.08 190.622 610.51 188.723 375.084 221.566 375.084" opacity="0.1"/><polygon points="711.188 371.385 711.188 382.484 47.67 382.484 47.67 366.451 109.335 334.385 656.923 334.385 711.188 371.385" fill="#e6e6e6"/><polygon points="711.188 371.385 711.188 382.484 47.67 382.484 47.67 366.451 711.188 371.385" opacity="0.1"/><polygon points="142.635 426.883 113.035 426.883 100.702 418.25 156.201 418.25 142.635 426.883" fill="#3f3d56"/><polygon points="142.635 462.649 113.035 462.649 100.702 454.016 156.201 454.016 142.635 462.649" fill="#3f3d56"/><polygon points="142.635 513.215 113.035 513.215 100.702 504.581 156.201 504.581 142.635 513.215" fill="#3f3d56"/><polygon points="142.635 563.78 113.035 563.78 100.702 555.147 156.201 555.147 142.635 563.78" fill="#3f3d56"/><polygon points="595.257 431.816 624.857 431.816 637.19 423.183 581.691 423.183 595.257 431.816" fill="#3f3d56"/><polygon points="595.257 467.582 624.857 467.582 637.19 458.949 581.691 458.949 595.257 467.582" fill="#3f3d56"/><polygon points="595.257 518.148 624.857 518.148 637.19 509.515 581.691 509.515 595.257 518.148" fill="#3f3d56"/><polygon points="595.257 568.713 624.857 568.713 637.19 560.08 581.691 560.08 595.257 568.713" fill="#3f3d56"/><path d="M859.81989,235.61493H610.63446a9.4227,9.4227,0,0,0-9.42389,9.42389V412.89655a9.4227,9.4227,0,0,0,9.42389,9.42388h94.5929l-3.54389,22.62623s-20.25281,10.75927-6.01251,11.07574,81.32764,0,81.32764,0,12.97448,0-7.59479-11.39221l-3.33362-22.30976h93.7497a9.42266,9.42266,0,0,0,9.42388-9.42388V245.03882A9.42266,9.42266,0,0,0,859.81989,235.61493Z" transform="translate(-244.40605 -115.15866)" fill="#3f3d56"/><rect x="365.82336" y="130.42445" width="249.99557" height="139.87094" fill="#f2f2f2"/><circle cx="490.82114" cy="125.99415" r="1.58225" fill="#f2f2f2"/><circle cx="490.82114" cy="294.34559" r="6.01255" fill="#f2f2f2"/><polygon points="481.452 357.952 481.452 361.117 311.202 361.117 311.202 358.585 311.436 357.952 315.632 346.56 477.971 346.56 481.452 357.952" fill="#3f3d56"/><path d="M791.37558,470.01266c-.31011,1.3259-1.481,2.72467-4.1265,4.04741-9.4935,4.74675-28.797-1.2658-28.797-1.2658s-14.87315-2.53161-14.87315-9.17706a11.86592,11.86592,0,0,1,1.30377-.77528c3.99133-2.11163,17.2253-7.32222,40.69051.22062a9.78618,9.78618,0,0,1,4.46035,2.923A4.667,4.667,0,0,1,791.37558,470.01266Z" transform="translate(-244.40605 -115.15866)" fill="#3f3d56"/><path d="M791.37558,470.01266c-11.62,4.45247-21.97744,4.78472-32.607-2.59805a23.34328,23.34328,0,0,0-13.88583-4.57268c3.99133-2.11163,17.2253-7.32222,40.69051.22062a9.78618,9.78618,0,0,1,4.46035,2.923A4.667,4.667,0,0,1,791.37558,470.01266Z" transform="translate(-244.40605 -115.15866)" opacity="0.1"/><ellipse cx="532.40017" cy="350.99016" rx="4.11385" ry="1.2658" fill="#f2f2f2"/><polygon points="481.452 357.952 481.452 361.117 311.202 361.117 311.202 358.585 311.436 357.952 481.452 357.952" opacity="0.1"/><g id="f3c2397c-d780-4cc6-97d8-1503d8277a2c" data-name="Group 13"><rect id="ad41612f-86f7-46b2-a964-3a5da7bcf3cf" data-name="Rectangle 55" x="437.40692" y="176.36275" width="29.75235" height="7.1626" fill="#e09f7d"/><rect id="ed27f15f-f0c4-4569-8330-a6688f8e356c" data-name="Rectangle 61" x="543.19305" y="222.6442" width="10.46842" height="7.1626" fill="#000"/><rect id="f685c005-adaf-4d60-acda-005b037d82a6" data-name="Rectangle 62" x="440.16176" y="222.6442" width="71.07506" height="7.1626" fill="#E09F7D"/><rect id="eca7c7fc-83f8-48ca-a588-6606db47af3f" data-name="Rectangle 63" x="522.80718" y="192.34088" width="29.75235" height="7.1626" fill="#d2bf55"/><rect id="a71b5b2f-f8b9-481d-a301-5e3357e5fe42" data-name="Rectangle 64" x="563.02795" y="192.34088" width="29.75235" height="7.1626" fill="#b968c7"/><rect id="abb3a25a-f854-41fc-8391-e6ad9fbe2417" data-name="Rectangle 66" x="399.94099" y="192.34088" width="10.46842" height="7.1626" fill="#3cbbb1"/><rect id="add2b425-b775-4eb5-9c25-8c4c14f957c9" data-name="Rectangle 67" x="420.87784" y="192.34088" width="10.46842" height="7.1626" fill="#72a98f"/><rect id="b7159612-3b84-4b0b-a885-612eaab04c06" data-name="Rectangle 68" x="441.81466" y="192.34088" width="71.07506" height="7.1626" fill="#3d5a6c"/><rect id="edfc7301-4de5-47dc-80e2-1ae2da982d6d" data-name="Rectangle 69" x="461.09859" y="207.76802" width="29.75235" height="7.1626" fill="#9999c3"/><rect id="e1009f91-6275-4375-80fa-0d778e331fdc" data-name="Rectangle 70" x="420.87783" y="207.76802" width="29.75235" height="7.1626" fill="#7b8cde"/><rect id="a060fb9f-1f1a-4862-9a69-16dd49199e18" data-name="Rectangle 71" x="399.941" y="207.76802" width="10.46842" height="7.1626" fill="#bf98a0"/></g></svg>
